<mxfile host="app.diagrams.net" modified="2023-09-17T08:21:52.785Z" agent="Mozilla/5.0 (Macintosh; Intel Mac OS X 10_15_7) AppleWebKit/537.36 (KHTML, like Gecko) Chrome/116.0.0.0 Safari/537.36" etag="UqBIPQ7c--bpUqf2T8eE" version="21.7.2" type="github">
  <diagram name="Page-1" id="zQBKsjdSoeLI2d0nw44Y">
    <mxGraphModel dx="1546" dy="837" grid="1" gridSize="10" guides="1" tooltips="1" connect="1" arrows="1" fold="1" page="1" pageScale="1" pageWidth="827" pageHeight="1169" math="0" shadow="0">
      <root>
        <mxCell id="0" />
        <mxCell id="1" parent="0" />
        <mxCell id="SQ3EIV8r3RZt4lURdNpu-1" style="edgeStyle=orthogonalEdgeStyle;rounded=0;orthogonalLoop=1;jettySize=auto;html=1;endArrow=none;endFill=0;" edge="1" parent="1" source="SQ3EIV8r3RZt4lURdNpu-2" target="SQ3EIV8r3RZt4lURdNpu-5">
          <mxGeometry relative="1" as="geometry" />
        </mxCell>
        <mxCell id="SQ3EIV8r3RZt4lURdNpu-2" value="appkey" style="rounded=1;whiteSpace=wrap;html=1;" vertex="1" parent="1">
          <mxGeometry x="60" y="50" width="100" height="40" as="geometry" />
        </mxCell>
        <mxCell id="SQ3EIV8r3RZt4lURdNpu-3" style="edgeStyle=orthogonalEdgeStyle;rounded=0;orthogonalLoop=1;jettySize=auto;html=1;endArrow=none;endFill=0;" edge="1" parent="1" source="SQ3EIV8r3RZt4lURdNpu-5" target="SQ3EIV8r3RZt4lURdNpu-6">
          <mxGeometry relative="1" as="geometry" />
        </mxCell>
        <mxCell id="SQ3EIV8r3RZt4lURdNpu-4" style="edgeStyle=orthogonalEdgeStyle;rounded=0;orthogonalLoop=1;jettySize=auto;html=1;entryX=0;entryY=0.5;entryDx=0;entryDy=0;endArrow=none;endFill=0;" edge="1" parent="1" source="SQ3EIV8r3RZt4lURdNpu-5" target="SQ3EIV8r3RZt4lURdNpu-7">
          <mxGeometry relative="1" as="geometry" />
        </mxCell>
        <mxCell id="SQ3EIV8r3RZt4lURdNpu-5" value="AK/SK" style="rounded=1;whiteSpace=wrap;html=1;" vertex="1" parent="1">
          <mxGeometry x="230" y="50" width="100" height="40" as="geometry" />
        </mxCell>
        <mxCell id="SQ3EIV8r3RZt4lURdNpu-6" value="资源" style="rounded=1;whiteSpace=wrap;html=1;" vertex="1" parent="1">
          <mxGeometry x="470" y="10" width="100" height="40" as="geometry" />
        </mxCell>
        <mxCell id="SQ3EIV8r3RZt4lURdNpu-7" value="接口" style="rounded=1;whiteSpace=wrap;html=1;" vertex="1" parent="1">
          <mxGeometry x="470" y="110" width="100" height="40" as="geometry" />
        </mxCell>
        <mxCell id="SQ3EIV8r3RZt4lURdNpu-8" value="1：n" style="text;html=1;strokeColor=none;fillColor=none;align=center;verticalAlign=middle;whiteSpace=wrap;rounded=0;" vertex="1" parent="1">
          <mxGeometry x="170" y="40" width="60" height="30" as="geometry" />
        </mxCell>
        <mxCell id="SQ3EIV8r3RZt4lURdNpu-9" value="1：n" style="text;html=1;strokeColor=none;fillColor=none;align=center;verticalAlign=middle;whiteSpace=wrap;rounded=0;" vertex="1" parent="1">
          <mxGeometry x="330" y="40" width="60" height="30" as="geometry" />
        </mxCell>
      </root>
    </mxGraphModel>
  </diagram>
</mxfile>
